HIERARCHY
ROOT Hips
{
	OFFSET 0.000000 0.000000 0.000000
	CHANNELS 6 Xposition Yposition Zposition Xrotation Yrotation Zrotation
	JOINT LeftUpLeg_virtual
	{
		OFFSET 0.000000 0.000000 0.000000
		CHANNELS 3 Xrotation Yrotation Zrotation
		JOINT LeftUpLeg
		{
			OFFSET 13.026900 -6.336304 -1.092800
			CHANNELS 3 Xrotation Yrotation Zrotation
			JOINT LeftLeg
			{
				OFFSET 0.524474 -46.096886 9.782700
				CHANNELS 3 Xrotation Yrotation Zrotation
				JOINT LeftFoot
				{
					OFFSET -0.524474 -53.427422 -12.948200
					CHANNELS 3 Xrotation Yrotation Zrotation
					JOINT LeftToeBase
					{
						OFFSET 0.192200 -14.009700 16.364100
						CHANNELS 3 Xrotation Yrotation Zrotation
						JOINT LeftToe_End
						{
							OFFSET -1.784700 -0.561700 9.474800
							CHANNELS 3 Xrotation Yrotation Zrotation
							End Site
							{
								OFFSET 0 0 0
							}
						}
					}
				}
			}
		}
	}
	JOINT RightUpLeg_virtual
	{
		OFFSET 0.000000 0.000000 0.000000
		CHANNELS 3 Xrotation Yrotation Zrotation
		JOINT RightUpLeg
		{
			OFFSET -12.883000 -6.336304 -1.092800
			CHANNELS 3 Xrotation Yrotation Zrotation
			JOINT RightLeg
			{
				OFFSET -0.524587 -46.096825 9.782800
				CHANNELS 3 Xrotation Yrotation Zrotation
				JOINT RightFoot
				{
					OFFSET 0.524587 -53.427383 -12.948300
					CHANNELS 3 Xrotation Yrotation Zrotation
					JOINT RightToeBase
					{
						OFFSET -0.192200 -14.009700 16.364100
						CHANNELS 3 Xrotation Yrotation Zrotation
						JOINT RightToe_End
						{
							OFFSET 1.784700 -0.561700 9.474800
							CHANNELS 3 Xrotation Yrotation Zrotation
							End Site
							{
								OFFSET 0 0 0
							}
						}
					}
				}
			}
		}
	}
	JOINT Spine_virtual
	{
		OFFSET 0.000000 0.000000 0.000000
		CHANNELS 3 Xrotation Yrotation Zrotation
		JOINT Spine
		{
			OFFSET 0.072000 7.257294 -0.789700
			CHANNELS 3 Xrotation Yrotation Zrotation
			JOINT Spine1
			{
				OFFSET 0.000000 12.508769 -0.658067
				CHANNELS 3 Xrotation Yrotation Zrotation
				JOINT Spine1_split
				{
					OFFSET 0.000000 12.508769 -0.658067
					CHANNELS 3 Xrotation Yrotation Zrotation
					JOINT Spine2
					{
						OFFSET 0.000000 12.508769 -0.658067
						CHANNELS 3 Xrotation Yrotation Zrotation
						JOINT Neck_virtual
						{
							OFFSET 0.000000 0.000000 0.000000
							CHANNELS 3 Xrotation Yrotation Zrotation
							JOINT Neck
							{
								OFFSET 0.000000 14.033295 7.520400
								CHANNELS 3 Xrotation Yrotation Zrotation
								JOINT Head
								{
									OFFSET 0.000000 8.198502 5.703100
									CHANNELS 3 Xrotation Yrotation Zrotation
									JOINT HeadTop_End
									{
										OFFSET 0.000000 17.760803 13.332701
										CHANNELS 3 Xrotation Yrotation Zrotation
										End Site
										{
											OFFSET 0 0 0
										}
									}
								}
							}
						}
						JOINT LeftShoulder_virtual
						{
							OFFSET 0.000000 0.000000 0.000000
							CHANNELS 3 Xrotation Yrotation Zrotation
							JOINT LeftShoulder
							{
								OFFSET 6.292450 5.785301 -0.669000
								CHANNELS 3 Xrotation Yrotation Zrotation
								JOINT LeftShoulder_split
								{
									OFFSET 6.292450 5.785301 -0.669000
									CHANNELS 3 Xrotation Yrotation Zrotation
									JOINT LeftArm
									{
										OFFSET 13.907140 -6.093903 1.965100
										CHANNELS 3 Xrotation Yrotation Zrotation
										JOINT LeftForeArm
										{
											OFFSET 34.140198 0.000000 0.000000
											CHANNELS 3 Xrotation Yrotation Zrotation
											JOINT LeftHand
											{
												OFFSET 40.960209 0.000000 0.000000
												CHANNELS 3 Xrotation Yrotation Zrotation
												End Site
												{
													OFFSET 0 0 0
												}
											}
										}
									}
								}
							}
						}
						JOINT RightShoulder_virtual
						{
							OFFSET 0.000000 0.000000 0.000000
							CHANNELS 3 Xrotation Yrotation Zrotation
							JOINT RightShoulder
							{
								OFFSET -6.292450 5.785301 -0.669000
								CHANNELS 3 Xrotation Yrotation Zrotation
								JOINT RightShoulder_split
								{
									OFFSET -6.292450 5.785301 -0.669000
									CHANNELS 3 Xrotation Yrotation Zrotation
									JOINT RightArm
									{
										OFFSET -13.907140 -6.093903 1.965100
										CHANNELS 3 Xrotation Yrotation Zrotation
										JOINT RightForeArm
										{
											OFFSET -34.140198 0.000000 0.000000
											CHANNELS 3 Xrotation Yrotation Zrotation
											JOINT RightHand
											{
												OFFSET -40.960209 0.000000 0.000000
												CHANNELS 3 Xrotation Yrotation Zrotation
												End Site
												{
													OFFSET 0 0 0
												}
											}
										}
									}
								}
							}
						}
					}
				}
			}
		}
	}
}
MOTION
Frames: 5
Frame Time: 0.03333333
-0.315703 46.264992 -6.669655 0.000000 0.000000 0.000000 67.820056 -2.045047 1.113016 -4.213408 15.413148 12.755556 17.359945 10.973718 0.411255 -36.090593 3.985780 -8.329475 -42.198258 2.982654 -8.941296 0.000000 0.000000 0.000000 69.850869 -6.023451 1.845692 -0.605584 -0.197683 -6.411644 11.963496 4.788272 -0.191527 -17.336875 8.231531 7.026188 -61.027009 -1.257326 5.993728 0.000000 0.000000 0.000000 72.863652 -1.049345 -0.741106 -1.850297 2.056400 -0.422751 2.248753 1.458617 0.138821 0.660459 -0.742396 0.932938 0.000000 0.000000 0.000000 2.179975 -0.267752 0.113335 -9.293061 0.692701 2.731788 10.033617 9.933258 -5.710998 0.000000 0.000000 0.000000 2.334680 -0.471209 1.042816 2.719703 1.353682 1.022578 -0.017220 0.782639 -3.234048 -43.450675 -56.966380 -49.176734 0.977109 -20.734369 0.078514 0.000000 0.000000 0.000000 1.578258 -0.222998 1.040959 0.211191 4.704542 15.180654 4.985659 9.370011 -1.902933 -56.361772 56.728628 52.569121 -0.903993 20.491998 0.401416 0.000000 0.000000 0.000000 
-0.600445 46.418949 -6.593872 0.000000 0.000000 0.000000 67.734706 -2.110035 1.278265 -3.781734 15.827872 12.692291 17.021670 11.298240 0.359687 -36.062275 3.883489 -7.187022 -42.302640 3.047306 -9.025414 0.000000 0.000000 0.000000 69.802737 -6.339563 2.195007 -0.806102 -0.248410 -6.385584 12.114162 4.767446 -0.136225 -17.370298 8.153634 7.329158 -60.804489 -1.233941 5.955961 0.000000 0.000000 0.000000 73.133035 -1.103875 -0.475186 -1.661523 2.076330 -0.515975 2.350355 1.446630 0.129005 0.791514 -1.185187 0.969695 0.000000 0.000000 0.000000 2.167440 -0.272708 0.170214 -9.675464 0.526334 2.696592 10.002038 9.841940 -6.084370 0.000000 0.000000 0.000000 2.423364 -0.453125 1.045313 2.693968 1.472672 1.063143 0.563438 0.973828 -2.783288 -43.850016 -56.979029 -49.539482 1.089102 -20.055607 -0.044682 0.000000 0.000000 0.000000 1.730956 -0.169616 1.096952 0.154127 4.979475 15.041875 5.016996 9.091869 -2.121939 -56.093810 55.988669 51.821239 -0.873980 20.890127 0.593515 0.000000 0.000000 0.000000 
-0.849183 46.772072 -6.570450 0.000000 0.000000 0.000000 67.742738 -2.344368 1.501800 -3.459424 16.042192 12.688741 16.315193 11.327001 0.442745 -35.421436 3.591586 -6.513085 -42.480758 3.108536 -9.137057 0.000000 0.000000 0.000000 69.886748 -6.775468 2.608355 -1.068191 -0.453203 -6.316772 12.155015 4.672978 -0.048629 -17.275683 8.032127 7.684247 -60.759888 -1.203199 5.909166 0.000000 0.000000 0.000000 73.335823 -1.225468 -0.193361 -1.366840 2.061896 -0.625430 2.469889 1.399904 0.130974 0.856668 -1.595568 0.946759 0.000000 0.000000 0.000000 2.149651 -0.330995 0.269105 -9.815927 0.477930 2.638948 9.794399 9.623324 -6.222877 0.000000 0.000000 0.000000 2.566821 -0.501680 1.045322 2.708177 1.519147 1.458107 1.181685 1.196765 -2.326580 -43.930226 -57.356288 -49.874933 1.170069 -19.877635 -0.196484 0.000000 0.000000 0.000000 1.941876 -0.163296 1.168280 -0.018026 5.643931 14.835765 5.158205 8.848782 -2.241742 -53.940705 54.523925 49.212326 -0.844504 22.961535 0.772447 0.000000 0.000000 0.000000 
-1.024070 47.270332 -6.671700 0.000000 0.000000 0.000000 67.751372 -2.718374 1.765388 -3.254063 16.067357 12.701040 15.387696 10.902669 0.602841 -34.324474 3.132397 -6.475509 -43.161830 3.074263 -8.997713 0.000000 0.000000 0.000000 69.991926 -7.253103 3.026271 -1.296258 -0.765623 -6.167081 12.118472 4.459777 0.020491 -17.175918 7.848714 7.993557 -60.833947 -1.174764 5.867009 0.000000 0.000000 0.000000 73.463097 -1.502893 0.173540 -1.027420 2.007891 -0.746705 2.579925 1.311436 0.132587 0.778681 -1.826543 0.927769 0.000000 0.000000 0.000000 2.155072 -0.440921 0.394638 -9.701065 0.553422 2.556203 9.365144 9.280606 -6.126304 0.000000 0.000000 0.000000 2.737894 -0.599075 1.051380 2.750781 1.588198 2.222802 1.779999 1.318259 -1.951910 -43.920408 -57.916289 -50.231827 1.255092 -20.404622 -0.352331 0.000000 0.000000 0.000000 2.186865 -0.199722 1.247452 -0.309069 6.757351 14.574895 5.257665 8.720301 -2.304776 -50.505663 52.521966 45.452320 -0.804165 26.237531 0.929285 0.000000 0.000000 0.000000 
-1.165156 47.807861 -6.811344 0.000000 0.000000 0.000000 67.745866 -3.132968 2.074481 -2.948839 15.894349 12.541384 14.244059 10.217430 0.858454 -33.377454 2.588395 -6.677065 -44.049693 2.927590 -8.631027 0.000000 0.000000 0.000000 70.065351 -7.707504 3.427038 -1.464448 -1.162733 -5.920266 12.161361 4.086550 0.017557 -17.205125 7.548321 8.149220 -60.887523 -1.157325 5.844188 0.000000 0.000000 0.000000 73.480446 -1.908652 0.608190 -0.682395 1.924576 -0.879555 2.676563 1.182806 0.126658 0.757444 -2.041744 0.854661 0.000000 0.000000 0.000000 2.214312 -0.589093 0.532902 -9.284814 0.745777 2.449436 8.759338 8.909320 -5.850211 0.000000 0.000000 0.000000 2.936376 -0.731143 1.057089 2.797318 1.747897 3.280456 2.149934 1.344924 -1.689466 -43.830191 -58.346058 -50.443461 1.387360 -21.514999 -0.480035 0.000000 0.000000 0.000000 2.442375 -0.278317 1.333470 -0.724231 8.368092 14.221743 5.274435 8.563947 -2.403025 -46.492930 50.210855 41.218897 -0.772730 30.168638 1.054867 0.000000 0.000000 0.000000 
